<?xml version="1.0" standalone="no"?>
<!DOCTYPE svg PUBLIC "-//W3C//DTD SVG 20010904//EN"
 "http://www.w3.org/TR/2001/REC-SVG-20010904/DTD/svg10.dtd">
<svg version="1.0" xmlns="http://www.w3.org/2000/svg"
 width="500.000000pt" height="500.000000pt" viewBox="0 0 500.000000 500.000000"
 preserveAspectRatio="xMidYMid meet">
<metadata>
Created by potrace 1.14, written by Peter Selinger 2001-2017
</metadata>
<g transform="translate(0.000000,500.000000) scale(0.100000,-0.100000)"
fill="#000000" stroke="none">
<path d="M544 4992 c-12 -2 -63 -48 -115 -105 -52 -56 -115 -124 -141 -152
-48 -50 -90 -96 -213 -228 -36 -38 -65 -75 -65 -81 1 -6 8 -56 15 -111 8 -55
17 -127 20 -160 3 -33 8 -71 12 -85 3 -14 6 -28 5 -32 -1 -5 2 -38 8 -75 15
-112 23 -177 22 -195 0 -10 2 -18 6 -18 4 0 8 -21 9 -47 1 -27 3 -59 4 -73 0
-14 4 -29 8 -35 3 -5 6 -27 6 -47 -1 -21 2 -38 5 -38 3 0 7 -15 8 -32 1 -18 4
-55 7 -83 3 -27 8 -66 10 -85 2 -19 4 -37 6 -40 1 -3 3 -18 5 -35 1 -16 3 -32
4 -35 2 -3 4 -21 6 -40 2 -19 6 -53 9 -75 3 -22 7 -58 8 -81 2 -22 7 -45 10
-51 4 -6 7 -22 6 -34 -1 -22 4 -62 16 -144 3 -16 7 -55 9 -85 2 -30 7 -62 10
-70 5 -15 33 -209 40 -280 2 -19 4 -35 5 -35 2 0 4 -18 5 -40 2 -22 4 -40 5
-40 2 0 4 -20 7 -45 6 -72 11 -115 14 -115 1 0 3 -16 5 -35 2 -19 6 -55 9 -80
4 -25 7 -62 7 -83 1 -20 5 -39 9 -42 4 -2 6 -19 4 -36 -2 -17 -1 -36 3 -42 4
-6 8 -27 10 -47 1 -19 5 -55 8 -80 3 -25 6 -58 8 -75 1 -16 6 -35 10 -41 4 -7
7 -23 6 -35 -1 -24 19 -160 24 -165 8 -9 323 -22 330 -15 6 6 10 205 10 478 0
257 2 457 5 443 2 -14 8 -29 13 -34 5 -6 9 -24 9 -41 0 -17 5 -36 12 -43 7 -7
8 -12 4 -12 -5 0 -1 -11 7 -24 9 -13 16 -32 17 -42 1 -44 6 -80 12 -90 4 -6 5
-24 2 -40 -6 -29 -11 -104 -16 -216 -1 -32 -6 -58 -11 -58 -4 0 -6 -4 -2 -9 3
-5 2 -12 -3 -15 -13 -8 -9 -241 4 -257 6 -8 10 -21 9 -30 -2 -11 15 -27 49
-45 28 -16 56 -29 61 -30 6 -1 28 -5 50 -9 21 -4 50 -15 63 -26 14 -10 31 -19
39 -19 8 0 27 -6 41 -14 15 -8 61 -31 102 -51 101 -48 117 -58 175 -112 19
-18 35 -29 35 -25 0 4 13 -18 29 -48 16 -30 27 -58 24 -62 -2 -5 1 -8 6 -8 13
0 50 -76 53 -110 2 -14 8 -30 14 -37 7 -7 11 -31 10 -53 0 -22 3 -40 8 -40 4
0 6 -9 3 -20 -3 -10 1 -24 8 -30 7 -6 16 -23 20 -37 9 -38 43 -65 65 -53 14 8
26 4 49 -16 39 -32 35 -31 54 -16 9 8 21 11 27 7 5 -3 19 -8 31 -10 12 -2 27
-12 33 -21 8 -10 29 -17 55 -18 23 -1 46 -8 51 -16 10 -17 60 -15 97 3 31 16
133 20 133 5 0 -5 4 -6 10 -3 5 3 10 2 10 -3 0 -19 42 -20 85 -1 56 25 113 13
160 -34 10 -10 23 -16 31 -13 7 3 14 -2 16 -10 2 -11 16 -3 47 26 24 22 49 39
55 37 6 -2 19 0 28 4 11 6 32 2 61 -10 45 -19 85 -18 99 3 8 13 138 19 138 7
0 -27 106 -33 116 -6 3 6 22 12 42 13 20 1 41 7 47 14 16 20 77 39 90 28 8 -6
25 -3 51 11 21 11 47 18 56 15 21 -5 58 20 58 40 0 8 4 14 9 14 8 0 26 66 23
82 -1 5 3 7 10 5 7 -1 12 15 13 43 1 25 3 47 5 50 1 3 3 10 4 15 0 6 7 20 14
33 7 12 10 22 6 22 -3 0 -1 7 6 15 6 8 9 18 6 23 -3 5 4 19 15 31 11 12 18 25
15 30 -3 5 1 12 9 15 8 3 14 9 13 13 -2 10 42 83 50 83 4 0 23 14 42 30 19 16
41 35 48 40 6 6 12 8 12 4 0 -4 8 0 18 8 23 20 104 61 177 89 33 13 62 26 65
29 12 12 57 31 85 35 54 8 62 11 88 28 15 9 30 17 35 17 14 0 32 24 39 51 13
57 1 401 -15 423 -12 15 -9 237 3 256 9 14 13 33 18 76 1 11 7 27 13 35 6 8
11 21 12 29 0 8 5 41 12 73 6 32 8 73 4 90 -4 18 -7 49 -7 69 1 21 -3 38 -8
38 -6 0 -7 5 -3 11 3 6 2 14 -4 18 -6 3 -12 13 -14 21 -2 8 -11 23 -21 34 -10
11 -15 26 -13 33 3 7 1 13 -4 13 -5 0 -6 12 -3 28 3 15 6 59 7 97 1 39 5 76 9
83 5 6 5 12 1 12 -3 0 -2 6 3 12 6 7 9 34 8 61 -1 26 1 49 5 52 3 2 5 23 3 47
-2 24 -5 66 -6 94 -2 28 -7 56 -12 64 -4 7 -9 26 -11 41 -6 52 -12 77 -24 98
-6 12 -8 26 -5 31 3 5 1 11 -5 15 -6 4 -8 10 -5 15 3 5 -2 15 -10 24 -8 8 -14
19 -13 23 3 11 -40 101 -63 134 -10 14 -16 28 -13 31 2 3 -2 11 -11 18 -8 7
-15 19 -15 26 0 8 -4 14 -10 14 -5 0 -10 6 -10 13 0 7 -8 22 -17 33 -10 10
-31 37 -47 59 -16 22 -39 48 -50 57 -12 10 -18 18 -14 18 8 0 -115 120 -151
147 -12 10 -36 30 -52 46 -16 15 -33 27 -38 27 -4 0 -19 9 -32 20 -53 43 -159
107 -159 95 0 -3 -21 8 -47 24 -27 16 -70 37 -98 46 -27 10 -55 22 -60 26 -6
4 -24 10 -40 13 -15 3 -31 9 -34 13 -3 5 -13 8 -21 8 -8 -1 -19 1 -25 4 -5 3
-12 6 -15 6 -25 4 -131 28 -155 35 -17 5 -77 14 -135 20 -58 5 -133 13 -167
16 -47 5 -67 3 -79 -7 -14 -11 -18 -11 -21 -1 -6 15 -122 16 -237 2 -203 -25
-328 -45 -356 -57 -18 -8 -16 -7 -62 -16 -21 -5 -38 -11 -38 -15 0 -4 -14 -8
-31 -9 -17 -1 -36 -6 -43 -11 -6 -5 -33 -18 -60 -28 -28 -10 -88 -39 -135 -64
-118 -63 -133 -72 -152 -92 -9 -10 -19 -18 -23 -18 -41 0 -359 -313 -339 -334
4 -3 -1 -6 -9 -6 -9 0 -18 -8 -22 -17 -3 -10 -15 -31 -26 -48 -25 -39 -54 -89
-55 -95 0 -3 -10 -21 -23 -41 -12 -20 -22 -43 -22 -50 0 -8 -7 -23 -15 -33 -8
-10 -12 -23 -9 -27 3 -5 1 -9 -5 -9 -6 0 -8 -6 -5 -14 3 -7 -1 -20 -8 -27 -7
-8 -15 -30 -17 -49 -1 -19 -7 -43 -12 -52 -11 -21 -20 -79 -22 -145 -1 -29 -5
-53 -10 -53 -4 0 -5 -4 -2 -10 3 -5 2 -10 -4 -10 -5 0 -7 -10 -5 -22 3 -13 6
-29 6 -35 1 -7 4 -13 8 -13 3 0 7 -24 8 -52 7 -166 10 -215 15 -228 15 -42 15
-50 5 -50 -6 0 -8 -3 -5 -6 3 -4 1 -16 -5 -28 -7 -11 -12 -25 -13 -29 0 -4 -6
-11 -13 -16 -8 -5 -14 -12 -14 -17 -1 -19 -18 -54 -27 -54 -10 0 -12 2149 -2
2151 3 1 797 2 1764 3 l1757 1 0 -1632 c0 -898 3 -1633 8 -1633 30 0 317 32
321 36 3 2 6 14 8 27 2 12 5 36 8 52 6 41 15 113 19 155 2 19 5 36 6 38 1 1 4
16 5 32 1 17 4 31 5 33 2 1 4 18 6 37 2 19 7 51 10 70 3 19 7 54 9 77 1 22 5
46 9 51 3 5 7 36 10 68 2 33 7 66 10 74 3 8 7 44 8 80 2 36 6 67 10 70 4 3 9
35 12 70 2 36 6 72 9 80 2 8 17 105 31 215 27 198 31 227 41 295 3 19 7 51 10
70 2 19 7 53 10 75 3 22 7 54 8 70 1 17 5 35 9 40 3 6 5 25 3 43 -1 17 1 32 4
32 4 0 7 15 6 33 -1 17 1 37 4 42 3 6 6 21 7 35 1 14 5 48 9 75 4 28 8 66 9
85 2 19 6 42 9 50 3 8 6 22 6 30 1 34 9 96 14 110 3 8 15 87 28 175 17 121 23
223 26 417 l5 257 -74 78 c-40 42 -101 106 -135 141 -35 36 -63 66 -63 69 0 2
-28 32 -62 66 -35 34 -77 78 -93 97 -17 19 -39 42 -49 50 -17 13 -253 15
-1990 15 -1084 0 -1981 -1 -1992 -3z m231 -2622 c3 -5 1 -10 -4 -10 -6 0 -11
5 -11 10 0 6 2 10 4 10 3 0 8 -4 11 -10z m455 -491 c14 -5 43 -12 64 -14 22
-3 45 -10 52 -16 7 -6 18 -8 24 -4 6 4 18 1 26 -6 9 -7 22 -14 29 -15 7 -1 28
-9 46 -17 19 -9 45 -19 59 -23 14 -3 53 -20 87 -36 35 -16 67 -27 72 -24 5 3
14 -1 21 -9 7 -8 16 -13 20 -10 4 2 23 -5 43 -15 21 -11 37 -17 37 -14 0 4 6
2 13 -4 6 -6 14 -10 17 -10 3 1 23 -8 45 -19 22 -11 55 -24 73 -28 17 -3 32
-11 32 -16 0 -5 3 -8 8 -7 4 1 21 -5 37 -12 17 -7 33 -14 38 -15 4 -2 10 -4
15 -5 4 -1 10 -2 15 -1 4 0 7 -3 7 -8 0 -5 10 -12 23 -16 12 -4 24 -8 27 -9
65 -28 99 -46 104 -55 4 -6 3 -11 -1 -11 -5 0 -17 -14 -27 -32 -28 -47 -174
-168 -203 -168 -7 0 -13 -4 -13 -9 0 -12 -50 -8 -235 18 -70 9 -248 38 -295
47 -32 6 -108 15 -137 16 -13 0 -23 4 -23 9 0 4 -21 8 -47 8 -27 0 -57 2 -68
5 -11 2 -23 5 -27 5 -5 1 -8 7 -8 15 0 8 -7 16 -15 20 -17 6 -112 198 -119
241 -2 17 -5 30 -6 30 -11 0 -21 153 -11 170 3 6 6 15 7 20 0 6 2 15 2 22 1 6
10 13 20 15 29 6 146 -3 172 -13z m2770 5 c9 -10 9 -203 -1 -209 -5 -4 -7 -10
-4 -15 3 -5 -2 -21 -11 -35 -9 -14 -13 -25 -9 -25 4 0 2 -7 -5 -15 -7 -8 -9
-15 -5 -15 3 0 -3 -16 -15 -35 -12 -19 -19 -39 -15 -45 3 -5 3 -10 -2 -10 -4
0 -19 -20 -32 -45 -21 -39 -81 -99 -81 -80 0 3 -6 3 -12 -1 -7 -5 -31 -9 -53
-9 -22 -1 -47 -4 -55 -7 -8 -4 -42 -9 -75 -12 -33 -3 -71 -7 -85 -11 -14 -3
-56 -10 -95 -15 -38 -6 -86 -15 -105 -19 -19 -5 -70 -12 -114 -15 -43 -4 -83
-9 -89 -13 -16 -10 -127 -12 -127 -2 0 5 -4 9 -10 9 -14 0 -123 79 -133 96 -5
8 -13 12 -18 8 -5 -3 -8 -2 -7 3 2 5 -3 15 -10 23 -41 49 -62 76 -62 82 0 8
84 47 114 54 11 2 22 7 25 12 3 4 49 25 101 46 52 21 115 47 138 58 62 27 150
60 158 58 4 -1 10 4 15 12 4 7 14 13 21 13 23 0 128 39 128 47 0 4 7 8 16 8 9
0 30 6 47 14 95 43 130 55 139 50 6 -4 13 -2 17 4 3 6 22 13 41 15 19 3 35 6
35 7 0 3 38 9 110 19 65 8 113 6 125 -5z m-1382 -523 c1 0 4 -1 7 -1 13 0 95
-91 95 -105 0 -9 5 -13 10 -10 6 3 10 -2 10 -12 0 -10 7 -31 15 -47 23 -44 27
-72 26 -191 -1 -127 -5 -171 -19 -188 -5 -7 -13 -27 -17 -45 -3 -18 -11 -30
-16 -26 -5 3 -9 -1 -9 -9 0 -7 -20 -36 -45 -63 -25 -27 -45 -45 -45 -40 0 5
-6 4 -12 -2 -7 -5 -54 -9 -105 -8 -71 1 -95 5 -110 19 -11 9 -25 17 -32 17 -7
0 -9 5 -6 10 3 6 1 10 -5 10 -6 0 -25 22 -42 50 -17 27 -36 50 -41 50 -7 0 -7
4 1 12 7 7 8 16 3 22 -5 6 -11 25 -14 43 -3 17 -8 37 -12 44 -11 16 -7 211 3
218 5 3 12 27 16 54 4 26 12 47 18 47 6 0 9 3 5 6 -14 14 70 114 116 141 13 6
192 11 205 4z"/>
<path d="M1628 398 c-10 -10 -18 -27 -18 -39 0 -21 26 -54 43 -54 5 0 13 -10
18 -22 5 -13 6 -23 2 -23 -3 0 12 -16 33 -35 43 -40 52 -42 69 -18 11 14 14
13 31 -15 10 -18 22 -32 27 -32 4 0 5 -4 2 -10 -3 -5 1 -10 9 -10 9 0 16 -4
16 -10 0 -5 7 -10 15 -10 8 0 15 -4 15 -8 0 -10 30 -9 47 1 7 5 21 -1 33 -13
11 -11 26 -20 33 -20 6 0 21 -7 31 -15 22 -17 126 -21 126 -5 0 5 13 8 28 7
20 -1 28 -7 25 -17 -7 -25 46 -47 114 -49 34 -1 64 3 68 9 3 5 17 10 31 10 14
0 23 3 21 8 -2 4 4 15 14 24 12 12 19 13 23 5 2 -7 5 -4 5 5 1 24 48 20 54 -4
8 -27 90 -58 155 -58 46 0 63 5 87 25 23 19 27 27 17 33 -9 6 -4 9 17 10 17 0
31 -4 31 -10 0 -15 133 -5 138 10 2 7 12 12 22 12 10 0 27 11 37 24 17 21 21
22 38 10 12 -9 22 -10 30 -4 7 5 15 7 18 3 4 -3 9 2 13 11 3 9 12 16 18 16 7
0 23 19 36 42 21 37 24 39 36 24 11 -16 15 -16 47 -2 32 13 59 44 56 63 -3 20
2 33 14 33 40 1 61 67 31 98 -30 29 -61 23 -55 -12 1 -4 -3 -14 -9 -21 -9 -11
-17 -10 -43 4 -18 10 -45 18 -62 17 -26 -1 -31 -5 -35 -34 -6 -36 -12 -38 -52
-14 -26 15 -29 15 -55 -5 -16 -11 -28 -29 -28 -39 1 -33 -17 -33 -64 1 -63 45
-108 53 -144 25 -15 -12 -25 -25 -23 -28 2 -4 -1 -15 -8 -24 -11 -15 -15 -14
-47 15 -19 18 -38 33 -42 35 -4 1 -8 2 -9 3 -18 6 -68 3 -68 -3 0 -5 -4 -7 -9
-4 -11 7 -75 -52 -84 -76 -4 -10 -11 -18 -17 -18 -6 0 -8 -5 -5 -10 3 -6 0
-10 -9 -10 -8 0 -17 -6 -19 -12 -4 -10 -6 -10 -6 -1 -1 6 4 15 9 18 6 4 4 12
-5 21 -8 9 -19 12 -25 9 -6 -3 -10 4 -10 16 0 12 -3 19 -6 16 -4 -3 -15 5 -26
18 -11 14 -26 25 -34 25 -8 0 -14 4 -14 8 0 9 -58 7 -83 -3 -10 -4 -32 -22
-50 -39 -29 -29 -32 -29 -35 -11 -6 29 -58 75 -86 75 -13 0 -35 -9 -48 -20
-14 -10 -28 -17 -31 -14 -3 3 -17 -7 -33 -23 l-28 -28 -8 34 c-6 20 -17 35
-29 38 -10 3 -19 9 -19 14 0 13 -34 11 -48 -3 -22 -22 -49 -19 -54 7 -3 13 0
29 5 34 17 17 -65 11 -85 -6 -20 -18 -52 -13 -54 7 -1 8 -2 21 -3 27 -1 18
-43 12 -63 -9z"/>
</g>
</svg>
